<?xml version="1.0"?>
<svg version="1.1" xmlns="http://www.w3.org/2000/svg" width="121" height="36" style=""><path fill="#ffffff" d="M30,28.14c0,4.17-3.39,6.42-7.29,6.42c-1.8,0-3.93-0.33-5.73-0.96c-0.39-0.15-0.51-0.33-0.51-0.57c0-0.12,0-0.24,0.06-0.39l0.63-1.95c0.09-0.3,0.24-0.48,0.54-0.48c0.12,0,0.27,0.03,0.45,0.09c1.41,0.51,2.97,0.9,4.47,0.9c1.62,0,3.45-0.78,3.45-2.67c0-1.38-1.02-2.13-2.19-2.7l-3.9-1.95c-2.13-1.05-3.54-2.82-3.54-5.16c0-3.66,3.6-5.67,6.93-5.67c1.98,0,3.63,0.3,5.37,1.05c0.39,0.18,0.6,0.36,0.6,0.6c0,0.12-0.03,0.24-0.09,0.39l-0.72,1.83c-0.12,0.33-0.3,0.45-0.51,0.45c-0.15,0-0.3-0.06-0.48-0.12c-1.23-0.51-2.76-0.93-3.96-0.93c-1.41,0-3.03,0.6-3.03,2.28c0,1.23,1.14,1.95,2.13,2.43l3.33,1.62c2.37,1.14,3.99,2.73,3.99,5.49z M45.825,33.18c0,0.24-0.15,0.36-0.42,0.48c-1.44,0.66-2.76,0.9-4.35,0.9c-4.62,0-7.17-2.88-7.17-7.5c0-4.65,2.79-7.8,7.44-7.8c1.35,0,2.76,0.27,4.02,0.84c0.24,0.12,0.36,0.18,0.36,0.42c0,0.09-0.03,0.27-0.06,0.36l-0.39,1.59c-0.06,0.27-0.18,0.42-0.36,0.42c-0.09,0-0.21-0.06-0.33-0.12c-0.87-0.36-1.83-0.66-2.88-0.66c-2.58,0-4.05,1.83-4.05,4.77c0,2.88,1.32,4.86,3.9,4.86c1.29,0,2.1-0.24,3.15-0.66c0.09-0.03,0.21-0.09,0.3-0.09c0.18,0,0.3,0.15,0.36,0.36l0.39,1.32c0.06,0.21,0.09,0.39,0.09,0.51z M54.12,15.84c0,1.17-1.02,1.89-2.01,1.89s-2.04-0.66-2.04-1.86s0.99-1.92,2.04-1.92c1.02,0,2.01,0.69,2.01,1.89z M53.94,33.45c0,0.54-0.24,0.75-0.75,0.75l-2.1,0c-0.54,0-0.78-0.21-0.78-0.75l0-13.11c0-0.51,0.3-0.69,0.78-0.69l2.1,0c0.48,0,0.75,0.15,0.75,0.69l0,13.11z M69.375,29.91c0,3.15-2.73,4.65-5.79,4.65c-1.56,0-3.27-0.45-4.62-1.05c-0.27-0.12-0.36-0.3-0.36-0.48c0-0.09,0.03-0.18,0.06-0.27l0.48-1.53c0.09-0.3,0.24-0.42,0.42-0.42c0.09,0,0.18,0,0.33,0.06c1.32,0.54,2.73,0.93,3.78,0.93c1.32,0,2.22-0.6,2.22-1.59c0-0.84-0.57-1.29-1.8-1.77l-2.37-0.9c-1.71-0.63-3.09-1.95-3.09-3.99c0-2.94,2.76-4.29,5.43-4.29c1.44,0,2.85,0.24,4.35,0.9c0.24,0.12,0.36,0.24,0.36,0.42c0,0.09-0.03,0.18-0.06,0.3l-0.51,1.62c-0.06,0.21-0.21,0.33-0.42,0.33c-0.09,0-0.21-0.03-0.3-0.06c-0.99-0.39-2.28-0.72-3.24-0.72c-1.26,0-1.89,0.69-1.89,1.38c0,0.66,0.33,1.08,1.47,1.53l2.7,1.11c1.59,0.66,2.85,1.89,2.85,3.84z M83.49,29.91c0,3.15-2.73,4.65-5.79,4.65c-1.56,0-3.27-0.45-4.62-1.05c-0.27-0.12-0.36-0.3-0.36-0.48c0-0.09,0.03-0.18,0.06-0.27l0.48-1.53c0.09-0.3,0.24-0.42,0.42-0.42c0.09,0,0.18,0,0.33,0.06c1.32,0.54,2.73,0.93,3.78,0.93c1.32,0,2.22-0.6,2.22-1.59c0-0.84-0.57-1.29-1.8-1.77l-2.37-0.9c-1.71-0.63-3.09-1.95-3.09-3.99c0-2.94,2.76-4.29,5.43-4.29c1.44,0,2.85,0.24,4.35,0.9c0.24,0.12,0.36,0.24,0.36,0.42c0,0.09-0.03,0.18-0.06,0.3l-0.51,1.62c-0.06,0.21-0.21,0.33-0.42,0.33c-0.09,0-0.21-0.03-0.3-0.06c-0.99-0.39-2.28-0.72-3.24-0.72c-1.26,0-1.89,0.69-1.89,1.38c0,0.66,0.33,1.08,1.47,1.53l2.7,1.11c1.59,0.66,2.85,1.89,2.85,3.84z M101.505,26.91c0,4.32-2.64,7.65-7.32,7.65c-4.89,0-7.14-3.3-7.14-7.68c0-4.32,2.64-7.62,7.32-7.62c4.89,0,7.14,3.24,7.14,7.65z M97.755,26.91c0-2.46-0.78-4.8-3.42-4.8c-2.67,0-3.54,2.31-3.54,4.71c0,2.46,0.75,4.89,3.42,4.89c2.64,0,3.54-2.34,3.54-4.8z M114.42,19.77c0,0.09,0,0.18-0.03,0.27l-0.33,2.13c-0.03,0.27-0.18,0.39-0.42,0.39l-0.12,0c-0.24-0.06-0.54-0.09-0.81-0.09c-1.02,0-2.13,0.54-2.88,1.44l0,9.54c0,0.48-0.21,0.75-0.72,0.75l-2.19,0c-0.48,0-0.72-0.24-0.72-0.75l0-9.36l0-3.69c0-0.6,0.3-0.75,0.75-0.75l1.92,0c0.48,0,0.75,0.15,0.75,0.57l0.03,0.96c0.93-1.17,1.95-1.92,3.63-1.92c0.24,0,0.57,0.06,0.84,0.12c0.21,0.06,0.3,0.15,0.3,0.39z"/><path fill="#040b0f" d=""/></svg>
