<?xml version="1.0"?>
<svg version="1.1" xmlns="http://www.w3.org/2000/svg" width="121" height="40" style="border: dashed 2px #aaa"><path fill="#" d="M28.156,17.079l-0.161,1.334c-0.046,0.391-0.299,0.483-0.713,0.483l-4.163,0l0,12.995c0,0.437-0.092,0.529-0.483,0.529l-2.024,0c-0.414,0-0.483-0.092-0.483-0.506l0-13.018l-4.301,0c-0.391,0-0.529-0.161-0.529-0.552l0-1.357c0-0.345,0.161-0.483,0.506-0.483l11.638,0c0.598,0,0.759,0.184,0.713,0.575z M37.3445,21.357c0,0.069,0,0.138-0.023,0.207l-0.253,1.633c-0.023,0.207-0.138,0.299-0.322,0.299l-0.092,0c-0.184-0.046-0.414-0.069-0.621-0.069c-0.782,0-1.633,0.414-2.208,1.104l0,7.314c0,0.368-0.161,0.575-0.552,0.575l-1.679,0c-0.368,0-0.552-0.184-0.552-0.575l0-7.176l0-2.829c0-0.46,0.23-0.575,0.575-0.575l1.472,0c0.368,0,0.575,0.115,0.575,0.437l0.023,0.736c0.713-0.897,1.495-1.472,2.783-1.472c0.184,0,0.437,0.046,0.644,0.092c0.161,0.046,0.23,0.115,0.23,0.299z M43.451,18.344c0,0.897-0.782,1.449-1.541,1.449s-1.564-0.506-1.564-1.426s0.759-1.472,1.564-1.472c0.782,0,1.541,0.529,1.541,1.449z M43.313,31.845c0,0.414-0.184,0.575-0.575,0.575l-1.61,0c-0.414,0-0.598-0.161-0.598-0.575l0-10.051c0-0.391,0.23-0.529,0.598-0.529l1.61,0c0.368,0,0.575,0.115,0.575,0.529l0,10.051z M64.3695,31.845c0,0.414-0.161,0.575-0.552,0.575l-1.61,0c-0.414,0-0.598-0.161-0.598-0.575l0-6.302c0-1.242-0.322-2.185-1.725-2.185c-0.874,0-1.886,0.46-2.599,1.035c0.046,0.207,0.092,3.289,0.092,3.611l0,3.841c0,0.414-0.161,0.575-0.552,0.575l-1.518,0c-0.414,0-0.598-0.161-0.598-0.575l0-6.302c0-1.219-0.253-2.185-1.656-2.185c-0.897,0-1.817,0.506-2.553,1.15l0,7.337c0,0.414-0.184,0.575-0.575,0.575l-1.61,0c-0.414,0-0.598-0.161-0.598-0.575l0-10.051c0-0.368,0.207-0.529,0.552-0.529l1.495,0c0.345,0,0.552,0.115,0.575,0.437l0.023,0.575c0.943-0.828,2.185-1.311,3.381-1.311c1.403,0,2.392,0.621,2.921,1.495c1.035-0.989,2.53-1.495,3.933-1.495c1.679,0,2.737,0.828,3.22,1.725c0.437,0.851,0.552,1.863,0.552,3.335l0,5.819z M71.419,31.845c0,0.391-0.184,0.575-0.506,0.575l-1.748,0c-0.322,0-0.529-0.161-0.529-0.552l0-15.088c0-0.391,0.161-0.506,0.46-0.552l1.656-0.23c0.046,0,0.115-0.023,0.161-0.023c0.276,0,0.506,0.138,0.506,0.506l0,15.364z M85.7595,21.587c0,0.069-0.023,0.138-0.046,0.23l-4.531,11.914c-1.035,2.737-2.323,3.703-5.083,3.703c-0.437,0-0.828-0.023-1.219-0.115c-0.253-0.046-0.345-0.184-0.345-0.391c0-0.069,0.023-0.115,0.023-0.207l0.161-1.196c0.046-0.299,0.161-0.414,0.414-0.414l0.138,0c0.276,0.023,0.552,0.069,0.782,0.069c1.426,0,2.024-0.506,2.484-1.587l0.437-1.035l-4.186-10.787c-0.023-0.069-0.046-0.115-0.046-0.184c0-0.184,0.138-0.322,0.345-0.322l2.208,0c0.322,0,0.483,0.161,0.575,0.391l2.553,7.613l2.415-7.475c0.115-0.368,0.299-0.529,0.69-0.529l1.863,0c0.23,0,0.368,0.138,0.368,0.322z"/><path fill="#" d=""/></svg>
